<?xml version="1.0" encoding="utf-8"?>
<!-- Generator: Adobe Illustrator 24.1.3, SVG Export Plug-In . SVG Version: 6.00 Build 0)  -->
<svg version="1.1" id="Layer_1" xmlns="http://www.w3.org/2000/svg" xmlns:xlink="http://www.w3.org/1999/xlink" x="0px" y="0px"
	 viewBox="0 0 40 40" style="enable-background:new 0 0 40 40;" xml:space="preserve">
<style type="text/css">
	.st0{fill:#2662AC;}
</style>
<g>
	<path class="st0" d="M29.84,15.88c0-5.43-4.41-9.84-9.84-9.84s-9.84,4.41-9.84,9.84c0,2.06,0.64,3.98,1.73,5.56l7.47,12.17
		c0.13,0.22,0.37,0.35,0.63,0.35c0,0,0,0,0,0c0.26,0,0.49-0.13,0.63-0.35l8.03-13c0.04-0.06,0.06-0.12,0.08-0.19
		C29.43,19.06,29.84,17.52,29.84,15.88z M19.99,31.82L12.7,19.94c-0.26-0.46-0.55-1.07-0.77-1.84c0,0-0.3-1.09-0.3-2.22
		c0-4.61,3.75-8.36,8.36-8.36s8.36,3.75,8.36,8.36c0,1.12-0.3,2.21-0.3,2.21c-0.27,0.99-0.67,1.74-0.99,2.24L19.99,31.82z"/>
	<path class="st0" d="M20,11.5c-2.41,0-4.38,1.96-4.38,4.38s1.96,4.38,4.38,4.38s4.38-1.96,4.38-4.38S22.42,11.5,20,11.5z M20,18.78
		c-1.6,0-2.9-1.3-2.9-2.9c0-1.6,1.3-2.9,2.9-2.9c1.6,0,2.9,1.3,2.9,2.9C22.9,17.48,21.6,18.78,20,18.78z"/>
</g>
</svg>
